<?xml version="1.0" encoding="iso-8859-1"?>
<!-- Generator: Adobe Illustrator 16.0.0, SVG Export Plug-In . SVG Version: 6.00 Build 0)  -->
<!DOCTYPE svg PUBLIC "-//W3C//DTD SVG 1.1//EN" "http://www.w3.org/Graphics/SVG/1.1/DTD/svg11.dtd">
<svg version="1.1" id="Capa_1" xmlns="http://www.w3.org/2000/svg" xmlns:xlink="http://www.w3.org/1999/xlink" x="0px" y="0px"
	 width="372.005px" height="372.005px" viewBox="0 0 372.005 372.005" style="enable-background:new 0 0 372.005 372.005;"
	 xml:space="preserve">
<g>
	<path d="M253.176,182.23V67.185C253.176,30.083,223.092,0,185.995,0c-37.108,0-67.176,30.083-67.176,67.185v115.037
		c0,37.098,30.068,67.181,67.176,67.181C223.092,249.402,253.176,219.334,253.176,182.23z"/>
	<path d="M305.269,189.115v-55.291c6.832-4.913,15.34-12.276,15.841-18.778c0.79-10.299-15.841-20.151-15.841-20.151h-23.496v94.229
		c0,52.766-42.932,95.686-95.693,95.686c-52.752,0-95.667-42.92-95.667-95.686V94.894H66.898c0,0-16.839,9.231-16,20.151
		c0.495,6.548,9.147,13.983,16,18.898v55.171c0,55.995,38.826,103.083,90.977,115.794v41.902h-21.822v25.194h21.822h56.257h21.824
		v-25.194h-21.824v-41.858C266.356,292.305,305.269,245.186,305.269,189.115z"/>
</g>
<g>
</g>
<g>
</g>
<g>
</g>
<g>
</g>
<g>
</g>
<g>
</g>
<g>
</g>
<g>
</g>
<g>
</g>
<g>
</g>
<g>
</g>
<g>
</g>
<g>
</g>
<g>
</g>
<g>
</g>
</svg>
